<svg id="Layer_1" data-name="Layer 1" xmlns="http://www.w3.org/2000/svg" viewBox="0 0 35 36"><defs><style>.cls-1{fill:#7aa05d;}.cls-2{fill:#fff;}</style></defs><circle class="cls-1" cx="17.5" cy="18" r="17.5"/><path class="cls-2" d="M24.13,21.64a1.39,1.39,0,0,0-1.25-.77H20.4A1.37,1.37,0,0,1,19,19.51v-.65a4.64,4.64,0,0,0,2.07-4c0-2.42-1.66-4.38-3.67-4.38s-3.61,2-3.61,4.38a4.51,4.51,0,0,0,2.07,4v.71a1.37,1.37,0,0,1-1.36,1.36H12.12a1.38,1.38,0,0,0-1.25.77l-.94,1.77v.12c0,1.07,3.37,1.9,7.57,1.9s7.57-.89,7.57-1.9v-.18Z"/></svg>