<svg id="Layer_1" data-name="Layer 1" xmlns="http://www.w3.org/2000/svg" viewBox="0 0 35 36"><defs><style>.cls-1{fill:#7aa05d;}.cls-2{fill:#fff;}</style></defs><circle class="cls-1" cx="17.5" cy="18" r="17.5"/><path class="cls-2" d="M21.56,21.11H14.3v-.05h0l-.51-1.41h9.55A.83.83,0,0,0,24.1,19l1.45-6.28a.53.53,0,0,0-.1-.42.53.53,0,0,0-.39-.18H11.82l-.1-.95a1,1,0,0,0-1-.75H8.44a1,1,0,1,0,0,2H10L12.45,22a2.34,2.34,0,1,0,4.15,1.48,1.87,1.87,0,0,0,0-.34h2.81a1.88,1.88,0,0,0,0,.34A2.34,2.34,0,1,0,24,23.2,2.44,2.44,0,0,0,21.56,21.11Z"/></svg>